<svg width="14" height="14" viewBox="0 0 14 14" fill="none" xmlns="http://www.w3.org/2000/svg">
<path d="M7.58332 6.76666V4.66666C7.58332 4.50138 7.52742 4.36284 7.41562 4.25103C7.30381 4.13923 7.16527 4.08332 6.99999 4.08332C6.83471 4.08332 6.69617 4.13923 6.58436 4.25103C6.47256 4.36284 6.41666 4.50138 6.41666 4.66666V6.98541C6.41666 7.06318 6.43124 7.13853 6.46041 7.21145C6.48957 7.28436 6.53332 7.34999 6.59166 7.40832L8.51666 9.33332C8.6236 9.44027 8.75971 9.49374 8.92499 9.49374C9.09027 9.49374 9.22638 9.44027 9.33332 9.33332C9.44027 9.22638 9.49374 9.09027 9.49374 8.92499C9.49374 8.75971 9.44027 8.6236 9.33332 8.51666L7.58332 6.76666ZM6.99999 12.8333C6.19305 12.8333 5.43471 12.6802 4.72499 12.3739C4.01527 12.0677 3.39791 11.6521 2.87291 11.1271C2.34791 10.6021 1.93228 9.98471 1.62603 9.27499C1.31978 8.56527 1.16666 7.80693 1.16666 6.99999C1.16666 6.19305 1.31978 5.43471 1.62603 4.72499C1.93228 4.01527 2.34791 3.39791 2.87291 2.87291C3.39791 2.34791 4.01527 1.93228 4.72499 1.62603C5.43471 1.31978 6.19305 1.16666 6.99999 1.16666C7.80693 1.16666 8.56527 1.31978 9.27499 1.62603C9.98471 1.93228 10.6021 2.34791 11.1271 2.87291C11.6521 3.39791 12.0677 4.01527 12.3739 4.72499C12.6802 5.43471 12.8333 6.19305 12.8333 6.99999C12.8333 7.80693 12.6802 8.56527 12.3739 9.27499C12.0677 9.98471 11.6521 10.6021 11.1271 11.1271C10.6021 11.6521 9.98471 12.0677 9.27499 12.3739C8.56527 12.6802 7.80693 12.8333 6.99999 12.8333ZM6.99999 11.6667C8.29305 11.6667 9.39409 11.2121 10.3031 10.3031C11.2121 9.39409 11.6667 8.29305 11.6667 6.99999C11.6667 5.70693 11.2121 4.60589 10.3031 3.69686C9.39409 2.78784 8.29305 2.33332 6.99999 2.33332C5.70693 2.33332 4.60589 2.78784 3.69686 3.69686C2.78784 4.60589 2.33332 5.70693 2.33332 6.99999C2.33332 8.29305 2.78784 9.39409 3.69686 10.3031C4.60589 11.2121 5.70693 11.6667 6.99999 11.6667Z" fill="#AAAAAA"/>
</svg>
